<svg width="140" height="67" viewBox="0 0 140 67" fill="none" xmlns="http://www.w3.org/2000/svg">
<path d="M136.507 7.13501C138.254 7.13501 139.685 5.73672 139.685 3.97681C139.685 2.16868 138.254 0.818604 136.507 0.818604C134.76 0.818604 133.328 2.19278 133.328 3.97681C133.328 5.71262 134.76 7.13501 136.507 7.13501ZM136.507 1.42131C137.914 1.42131 139.03 2.50619 139.03 3.9527C139.03 5.3751 137.914 6.50819 136.507 6.50819C135.075 6.50819 133.959 5.3751 133.959 3.9527C133.959 2.5303 135.075 1.42131 136.507 1.42131Z" fill="black"/>
<path d="M135.88 5.61908V4.31722H136.681L137.336 5.61908H138.015L137.287 4.19668C137.627 4.02792 137.87 3.73862 137.87 3.25645C137.87 2.58141 137.384 2.2439 136.826 2.2439H135.783C135.443 2.2439 135.273 2.41266 135.273 2.70196V5.59497H135.88V5.61908ZM135.904 2.77428H136.778C137.045 2.77428 137.239 2.94304 137.239 3.25645C137.239 3.56986 137.02 3.76273 136.729 3.76273H135.88L135.904 2.77428Z" fill="black"/>
<path d="M16.766 7.0656C23.4385 7.0656 24.2634 13.8883 24.2634 13.8883L32.1975 12.0319C32.149 11.8391 30.766 0.0500488 16.766 0.0500488C8.10398 0.0500488 0 5.30569 0 18.7341C0 32.0661 8.51645 37.177 17.3483 37.177C23.3657 37.177 27.5875 35.176 29.0676 34.3564C30.9844 33.2474 32.052 32.1625 32.052 29.8722V21.6512C32.052 19.5056 30.6204 18.2037 28.2911 18.2037H17.4211V24.279H24.2391V29.0043C24.2391 29.0043 21.8371 30.6195 17.6152 30.6195C13.1508 30.6195 8.49219 27.9435 8.49219 18.7341C8.49219 9.74164 12.5442 7.0656 16.766 7.0656Z" fill="black"/>
<path d="M52.0424 0C48.7183 0 46.7044 1.4224 45.7339 4.33952L34.9609 36.7172H43.4774C44.084 36.7172 44.7876 36.3555 45.2001 35.9457L55.4635 25.8684C55.6819 25.6514 55.6091 25.5549 55.3665 25.5549H53.9834C53.4011 25.5549 52.8673 25.6996 52.3578 25.9889L45.467 29.9186L52.0181 7.93168C52.0181 7.93168 59.8067 34.5474 60.4375 36.693H69.1966L58.5692 4.26719C57.6715 1.56705 55.415 0 52.0424 0Z" fill="black"/>
<path d="M87.2738 6.96917C93.9463 6.96917 94.8197 14.274 94.8197 14.274L102.754 12.6105C102.754 12.6105 101.565 0.0500488 87.2738 0.0500488C78.6118 0.0500488 70.5078 5.16104 70.5078 18.5894C70.5078 31.9214 78.539 37.2253 87.2253 37.2253C101.225 37.2253 102.754 24.9541 102.754 24.9541L94.8197 23.2424C94.8197 23.2424 94.1889 30.3061 87.3709 30.3061C83.1491 30.3061 79.0485 27.6301 79.0485 18.5653C79.0243 9.59699 83.052 6.96917 87.2738 6.96917Z" fill="black"/>
<path d="M121.848 0C118.524 0 116.51 1.4224 115.515 4.33952L104.742 36.7172H113.259C113.865 36.7172 114.569 36.3555 114.981 35.9457L125.245 25.8684C125.463 25.6514 125.39 25.5549 125.148 25.5549H123.765C123.182 25.5549 122.624 25.6996 122.139 25.9889L115.248 29.9186L121.799 7.93168C121.799 7.93168 129.588 34.5474 130.219 36.693H139.002L128.375 4.26719C127.477 1.56705 125.245 0 121.848 0Z" fill="black"/>
<path d="M1.17188 61.6711C1.17188 59.5978 2.26373 58.1995 3.96217 58.1995C5.07828 58.1995 5.7334 58.8504 6.12161 59.6219L5.1996 60.0317C4.95696 59.5495 4.54449 59.1638 3.96217 59.1638C2.99163 59.1638 2.33652 60.1281 2.33652 61.647C2.33652 63.1658 2.99163 64.1301 3.96217 64.1301C4.4717 64.1301 4.88418 63.8891 5.10255 63.648V62.4425H3.671V61.4782H6.17014V64.1301C5.63634 64.757 4.90844 65.1668 3.96217 65.1668C2.28799 65.1668 1.17188 63.7444 1.17188 61.6711Z" fill="black"/>
<path d="M7.20312 62.587C7.20312 61.1887 8.00382 60.0315 9.31404 60.0315C10.6485 60.0315 11.3764 61.1405 11.3764 62.6111V62.9004H8.24645C8.29498 63.696 8.73172 64.2987 9.53241 64.2987C9.92063 64.2987 10.3574 64.1058 10.6485 63.7683L11.1338 64.371C10.7213 64.8532 10.0905 65.1184 9.43536 65.1184C8.07661 65.1425 7.20312 64.1058 7.20312 62.587ZM9.31404 60.8512C8.53762 60.8512 8.27072 61.6227 8.22219 62.2013H10.3816C10.3816 61.5985 10.1147 60.8512 9.31404 60.8512Z" fill="black"/>
<path d="M15.2488 65.0182V61.7153C15.2488 61.1367 14.9819 60.9438 14.5451 60.9438C14.1084 60.9438 13.7202 61.2814 13.5503 61.6189V65.0423H12.5312V60.1965H13.5503V60.8474C13.8172 60.4617 14.3753 60.0759 14.9819 60.0759C15.8796 60.0759 16.2678 60.5581 16.2678 61.4019V65.0664H15.2488V65.0182Z" fill="black"/>
<path d="M17.4297 62.587C17.4297 61.1887 18.2304 60.0315 19.5406 60.0315C20.8751 60.0315 21.603 61.1405 21.603 62.6111V62.9004H18.473C18.5215 63.696 18.9583 64.2987 19.759 64.2987C20.1472 64.2987 20.5839 64.1058 20.8751 63.7683L21.3604 64.371C20.9479 64.8532 20.317 65.1184 19.6619 65.1184C18.2789 65.1425 17.4297 64.1058 17.4297 62.587ZM19.5406 60.8512C18.7642 60.8512 18.4973 61.6227 18.4487 62.2013H20.6082C20.6082 61.5985 20.317 60.8512 19.5406 60.8512Z" fill="black"/>
<path d="M22.7109 65.0182V60.1724H23.73V60.8956C24.0212 60.4376 24.5307 60.0759 25.0888 60.0759V61.0644C25.016 61.0403 24.9189 61.0403 24.8219 61.0403C24.4094 61.0403 23.9241 61.3537 23.73 61.7153V65.0423L22.7109 65.0182Z" fill="black"/>
<path d="M28.6427 65.0182V64.536C28.3515 64.9458 27.842 65.1387 27.3325 65.1387C26.5318 65.1387 25.8281 64.5601 25.8281 63.5234C25.8281 62.4868 26.5318 61.9564 27.3325 61.9564C27.842 61.9564 28.3515 62.1493 28.6427 62.535V61.8358C28.6427 61.2572 28.303 60.9197 27.6721 60.9197C27.2354 60.9197 26.8229 61.0885 26.4347 61.4742L26.0465 60.7751C26.556 60.2929 27.2111 60.0759 27.842 60.0759C28.8853 60.0759 29.6375 60.5581 29.6375 61.7394V65.0664H28.6427V65.0182ZM28.6427 63.9092V63.1859C28.4486 62.8484 28.0846 62.6555 27.7207 62.6555C27.1869 62.6555 26.8714 63.0413 26.8714 63.5475C26.8714 64.0779 27.1869 64.4637 27.7207 64.4637C28.0604 64.4396 28.4486 64.2467 28.6427 63.9092Z" fill="black"/>
<path d="M32.0581 58.3164H31.0391V65.0186H32.0581V58.3164Z" fill="black"/>
<path d="M39.4554 65.0186L39.0914 63.6926H36.8592L36.4952 65.0186H35.2578L37.2959 58.3164H38.6547L40.6928 65.0186H39.4554ZM37.9753 59.4977L37.0776 62.7041H38.8488L37.9753 59.4977Z" fill="black"/>
<path d="M44.1784 65.0221V64.3711C43.9115 64.781 43.3777 65.1426 42.7469 65.1426C41.8734 65.1426 41.4609 64.6845 41.4609 63.8407V60.1763H42.48V63.5032C42.48 64.0577 42.7469 64.2747 43.1836 64.2747C43.6204 64.2747 43.9843 63.9613 44.1784 63.6238V60.2004H45.1975V65.0462L44.1784 65.0221Z" fill="black"/>
<path d="M46.8036 63.938V61.0449H46.1484V60.177H46.8036V58.8511H47.8226V60.177H48.6476V61.0449H47.8226V63.721C47.8226 64.0585 47.9439 64.2514 48.2108 64.2514C48.3807 64.2514 48.5263 64.179 48.599 64.0826L48.8417 64.83C48.6476 64.9987 48.3807 65.1193 47.9439 65.1193C47.1675 65.1434 46.8036 64.7335 46.8036 63.938Z" fill="black"/>
<path d="M52.4683 65.0186V61.6916C52.4683 61.1371 52.2014 60.9201 51.7404 60.9201C51.3037 60.9201 50.9397 61.2576 50.7456 61.5952V65.0186H49.7266V58.3164H50.7456V60.8237C51.0125 60.438 51.5706 60.0522 52.1772 60.0522C53.0506 60.0522 53.4631 60.5103 53.4631 61.3541V65.0186H52.4683Z" fill="black"/>
<path d="M54.625 62.587C54.625 61.2128 55.3529 60.0315 56.7602 60.0315C58.1675 60.0315 58.8954 61.2128 58.8954 62.587C58.8954 63.9612 58.1675 65.1425 56.7602 65.1425C55.3772 65.1425 54.625 63.9612 54.625 62.587ZM57.852 62.587C57.852 61.7191 57.5124 60.9235 56.7602 60.9235C56.008 60.9235 55.6683 61.695 55.6683 62.587C55.6683 63.4549 56.008 64.2505 56.7602 64.2505C57.5124 64.2505 57.852 63.479 57.852 62.587Z" fill="black"/>
<path d="M60.0625 65.0182V60.1724H61.0816V60.8956C61.3727 60.4376 61.8823 60.0759 62.4403 60.0759V61.0644C62.3675 61.0403 62.2705 61.0403 62.1734 61.0403C61.7609 61.0403 61.2757 61.3537 61.0816 61.7153V65.0423L60.0625 65.0182Z" fill="black"/>
<path d="M63.2812 58.921C63.2812 58.5594 63.5724 58.2942 63.9364 58.2942C64.276 58.2942 64.5672 58.5835 64.5672 58.921C64.5672 59.2585 64.276 59.5478 63.9364 59.5478C63.5724 59.5478 63.2812 59.2826 63.2812 58.921ZM63.4026 60.1746H64.4216V65.0204H63.4026V60.1746Z" fill="black"/>
<path d="M66.0137 63.938V61.0449H65.3828V60.177H66.0379V58.8511H67.057V60.177H67.8819V61.0449H67.057V63.721C67.057 64.0585 67.1783 64.2514 67.4452 64.2514C67.615 64.2514 67.7606 64.179 67.8334 64.0826L68.0761 64.83C67.8819 64.9987 67.6151 65.1193 67.1783 65.1193C66.3776 65.1434 66.0137 64.7335 66.0137 63.938Z" fill="black"/>
<path d="M68.9026 66.0346C68.9997 66.0828 69.1453 66.1069 69.2181 66.1069C69.485 66.1069 69.6791 66.0105 69.7761 65.6971L69.9702 65.1185L68.3203 60.1763H69.4122L70.504 63.8166L71.6201 60.1763H72.712L70.7709 65.9382C70.504 66.7579 70.0188 66.999 69.3151 66.999C69.1695 66.999 68.9026 66.9748 68.7571 66.9266L68.9026 66.0346Z" fill="black"/>
<path d="M75.6484 62.587C75.6484 61.2128 76.3764 60.0315 77.7836 60.0315C79.1909 60.0315 79.9188 61.2128 79.9188 62.587C79.9188 63.9612 79.1909 65.1425 77.7836 65.1425C76.4006 65.1425 75.6484 63.9612 75.6484 62.587ZM78.8755 62.587C78.8755 61.7191 78.5358 60.9235 77.7836 60.9235C77.0315 60.9235 76.6918 61.695 76.6918 62.587C76.6918 63.4549 77.0315 64.2505 77.7836 64.2505C78.5358 64.2505 78.8755 63.479 78.8755 62.587Z" fill="black"/>
<path d="M81.3184 65.0203V61.0424H80.6875V60.1745H81.3184V59.7164C81.3184 58.7762 81.8521 58.2217 82.7014 58.2217C83.0653 58.2217 83.4293 58.3181 83.6962 58.5592L83.3565 59.2583C83.2109 59.1378 83.0896 59.0655 82.8955 59.0655C82.5315 59.0655 82.3374 59.3066 82.3374 59.7164V60.1745H83.1624V61.0424H82.3374V65.0203H81.3184Z" fill="black"/>
<path d="M86.2734 61.6711C86.2734 59.646 87.341 58.1995 89.0637 58.1995C90.2526 58.1995 90.8592 58.9227 91.2232 59.6701L90.2769 60.0799C90.0343 59.5495 89.6218 59.1879 89.0637 59.1879C88.0689 59.1879 87.4381 60.2246 87.4381 61.6711C87.4381 63.0935 88.0689 64.1543 89.0637 64.1543C89.6461 64.1543 90.0828 63.7203 90.2769 63.1658L91.2232 63.5756C90.8835 64.3471 90.2526 65.1427 89.0637 65.1427C87.341 65.1427 86.2734 63.6962 86.2734 61.6711Z" fill="black"/>
<path d="M92.1328 58.921C92.1328 58.5594 92.424 58.2942 92.7879 58.2942C93.1276 58.2942 93.4188 58.5835 93.4188 58.921C93.4188 59.2585 93.1276 59.5478 92.7879 59.5478C92.424 59.5478 92.1328 59.2826 92.1328 58.921ZM92.2784 60.1746H93.2975V65.0204H92.2784V60.1746Z" fill="black"/>
<path d="M95.7428 65.0221L94.1172 60.1763H95.209L96.3009 63.8407L97.3927 60.1763H98.4846L96.8347 65.0221H95.7428Z" fill="black"/>
<path d="M99.1719 58.921C99.1719 58.5594 99.463 58.2942 99.827 58.2942C100.167 58.2942 100.458 58.5835 100.458 58.921C100.458 59.2585 100.167 59.5478 99.827 59.5478C99.463 59.5478 99.1719 59.2826 99.1719 58.921ZM99.2932 60.1746H100.312V65.0204H99.2932V60.1746Z" fill="black"/>
<path d="M102.753 58.3164H101.734V65.0186H102.753V58.3164Z" fill="black"/>
<path d="M110.158 65.0186L109.794 63.6926H107.561L107.198 65.0186H105.984L108.023 58.3164H109.381L111.419 65.0186H110.158ZM108.653 59.4977L107.756 62.7041H109.527L108.653 59.4977Z" fill="black"/>
<path d="M113.094 65.0221L111.469 60.1763H112.561L113.652 63.8407L114.744 60.1763H115.836L114.211 65.0221H113.094Z" fill="black"/>
<path d="M116.523 58.921C116.523 58.5594 116.815 58.2942 117.179 58.2942C117.518 58.2942 117.809 58.5835 117.809 58.921C117.809 59.2585 117.518 59.5478 117.179 59.5478C116.839 59.5478 116.523 59.2826 116.523 58.921ZM116.669 60.1746H117.688V65.0204H116.669V60.1746Z" fill="black"/>
<path d="M121.627 65.0182V64.536C121.336 64.9458 120.826 65.1387 120.317 65.1387C119.516 65.1387 118.812 64.5601 118.812 63.5234C118.812 62.4868 119.54 61.9564 120.317 61.9564C120.826 61.9564 121.336 62.1493 121.627 62.535V61.8358C121.627 61.2572 121.287 60.9197 120.657 60.9197C120.22 60.9197 119.807 61.0885 119.419 61.4742L119.031 60.7751C119.54 60.2929 120.196 60.0759 120.851 60.0759C121.894 60.0759 122.646 60.5581 122.646 61.7394V65.0664H121.627V65.0182ZM121.627 63.9092V63.1859C121.433 62.8484 121.069 62.6555 120.705 62.6555C120.171 62.6555 119.856 63.0413 119.856 63.5475C119.856 64.0779 120.171 64.4637 120.705 64.4637C121.069 64.4396 121.433 64.2467 121.627 63.9092Z" fill="black"/>
<path d="M124.256 63.938V61.0449H123.625V60.177H124.256V58.8511H125.275V60.177H126.1V61.0449H125.275V63.721C125.275 64.0585 125.396 64.2514 125.663 64.2514C125.833 64.2514 125.979 64.179 126.051 64.0826L126.294 64.83C126.1 64.9987 125.833 65.1193 125.396 65.1193C124.62 65.1434 124.256 64.7335 124.256 63.938Z" fill="black"/>
<path d="M127.016 58.921C127.016 58.5594 127.307 58.2942 127.646 58.2942C127.986 58.2942 128.277 58.5835 128.277 58.921C128.277 59.2585 127.986 59.5478 127.646 59.5478C127.331 59.5478 127.016 59.2826 127.016 58.921ZM127.161 60.1746H128.18V65.0204H127.161V60.1746Z" fill="black"/>
<path d="M129.352 62.587C129.352 61.2128 130.079 60.0315 131.487 60.0315C132.894 60.0315 133.622 61.2128 133.622 62.587C133.622 63.9612 132.894 65.1425 131.487 65.1425C130.079 65.1425 129.352 63.9612 129.352 62.587ZM132.554 62.587C132.554 61.7191 132.215 60.9235 131.462 60.9235C130.71 60.9235 130.371 61.695 130.371 62.587C130.371 63.4549 130.71 64.2505 131.462 64.2505C132.239 64.2505 132.554 63.479 132.554 62.587Z" fill="black"/>
<path d="M137.507 65.0182V61.7153C137.507 61.1367 137.24 60.9438 136.803 60.9438C136.366 60.9438 135.978 61.2814 135.808 61.6189V65.0423H134.789V60.1965H135.808V60.8474C136.075 60.4617 136.633 60.0759 137.24 60.0759C138.137 60.0759 138.526 60.5581 138.526 61.4019V65.0664H137.507V65.0182Z" fill="black"/>
<path d="M73.716 46.4085C74.0556 46.4085 74.3225 46.1434 74.3225 45.8058C74.3225 45.4683 74.0556 45.2031 73.716 45.2031C73.3763 45.2031 73.1094 45.4683 73.1094 45.8058C73.1094 46.1434 73.3763 46.4085 73.716 46.4085Z" fill="black"/>
<path d="M75.6535 46.4085C75.9931 46.4085 76.26 46.1434 76.26 45.8058C76.26 45.4683 75.9931 45.2031 75.6535 45.2031C75.3138 45.2031 75.0469 45.4683 75.0469 45.8058C75.0469 46.1434 75.3138 46.4085 75.6535 46.4085Z" fill="black"/>
<path d="M108.443 46.4085C108.782 46.4085 109.049 46.1434 109.049 45.8058C109.049 45.4683 108.782 45.2031 108.443 45.2031C108.103 45.2031 107.836 45.4683 107.836 45.8058C107.836 46.1434 108.103 46.4085 108.443 46.4085Z" fill="black"/>
<path d="M110.38 46.4085C110.72 46.4085 110.987 46.1434 110.987 45.8058C110.987 45.4683 110.72 45.2031 110.38 45.2031C110.04 45.2031 109.773 45.4683 109.773 45.8058C109.773 46.1434 110.065 46.4085 110.38 46.4085Z" fill="black"/>
<path d="M122.311 47.8533L122.214 47.0819C121.777 47.1542 120.807 47.4435 120.709 46.7926C120.661 46.4551 120.904 46.1175 121.243 46.0452C121.51 45.997 121.801 46.0934 122.044 46.1899L122.287 45.4425C121.729 45.2737 121.122 45.2014 120.637 45.563C120.103 45.9247 119.909 46.6961 120.248 47.2506C119.763 47.2747 119.375 47.2747 119.375 47.2747V47.8533C119.957 47.8775 120.515 47.9016 121.098 47.9016C121.195 47.9016 121.898 47.8775 122.311 47.8533Z" fill="black"/>
<path d="M49.4738 54.0735C49.1341 54.0735 48.8672 54.3387 48.8672 54.6762C48.8672 55.0137 49.1341 55.2789 49.4738 55.2789C49.8135 55.2789 50.0804 55.0137 50.0804 54.6762C50.0804 54.3628 49.8135 54.0735 49.4738 54.0735Z" fill="black"/>
<path d="M51.4191 54.0735C51.0794 54.0735 50.8125 54.3387 50.8125 54.6762C50.8125 55.0137 51.0794 55.2789 51.4191 55.2789C51.7588 55.2789 52.0257 55.0137 52.0257 54.6762C52.0257 54.3628 51.7588 54.0735 51.4191 54.0735Z" fill="black"/>
<path d="M123.333 54.0735C122.993 54.0735 122.727 54.3387 122.727 54.6762C122.727 55.0137 122.993 55.2789 123.333 55.2789C123.673 55.2789 123.94 55.0137 123.94 54.6762C123.94 54.3628 123.673 54.0735 123.333 54.0735Z" fill="black"/>
<path d="M125.278 54.0735C124.939 54.0735 124.672 54.3387 124.672 54.6762C124.672 55.0137 124.939 55.2789 125.278 55.2789C125.618 55.2789 125.885 55.0137 125.885 54.6762C125.885 54.3628 125.618 54.0735 125.278 54.0735Z" fill="black"/>
<path d="M3.7394 55.5212C3.39971 55.5212 3.13281 55.7864 3.13281 56.124C3.13281 56.4615 3.39971 56.7267 3.7394 56.7267C4.07909 56.7267 4.34598 56.4615 4.34598 56.124C4.34598 55.7864 4.07909 55.5212 3.7394 55.5212Z" fill="black"/>
<path d="M5.6769 55.5212C5.33721 55.5212 5.07031 55.7864 5.07031 56.124C5.07031 56.4615 5.33721 56.7267 5.6769 56.7267C6.01659 56.7267 6.28348 56.4615 6.28348 56.124C6.28348 55.7864 6.01659 55.5212 5.6769 55.5212Z" fill="black"/>
<path d="M37.9269 48.7696C38.2666 48.7696 38.5335 48.5044 38.5335 48.1669C38.5335 47.8294 38.2666 47.5642 37.9269 47.5642C37.5872 47.5642 37.3203 47.8294 37.3203 48.1669C37.3203 48.5044 37.5872 48.7696 37.9269 48.7696Z" fill="black"/>
<path d="M10.341 47.6168C10.6806 47.6168 10.9475 47.3516 10.9475 47.0141C10.9475 46.6766 10.6806 46.4114 10.341 46.4114C10.0013 46.4114 9.73438 46.6766 9.73438 47.0141C9.73438 47.3516 10.0013 47.6168 10.341 47.6168Z" fill="black"/>
<path d="M138.45 45.4705H137.406V52.8476H138.45V45.4705Z" fill="black"/>
<path d="M103.286 45.4705H102.242V52.8476H103.286V45.4705Z" fill="black"/>
<path d="M43.3636 45.4705H42.3203V52.8476H43.3636V45.4705Z" fill="black"/>
<path d="M134.663 51.327C134.663 51.7127 134.348 52.0261 133.959 52.0261H131.048C131.072 52.002 131.096 51.9779 131.096 51.9538C131.315 51.6645 131.557 51.1341 131.339 50.3867C131.218 49.9287 130.805 48.5063 129.786 48.4822H129.762C128.573 48.4822 127.821 50.4832 127.699 50.8689C127.627 51.11 127.505 51.5198 127.408 52.002C126.947 52.002 124.836 52.002 124.836 52.002C124.933 51.785 124.982 51.544 124.982 51.3029V48.7715H123.939V51.3029C123.939 51.6886 123.623 52.002 123.235 52.002H122.604C122.216 52.002 121.901 51.6886 121.901 51.3029V48.7715H120.857V51.3029C120.857 51.6886 120.542 52.002 120.154 52.002H111.273C110.885 52.002 110.57 51.6886 110.57 51.3029V47.4696H109.526V47.9518C109.235 48.0482 108.677 48.217 108.095 48.4822C106.857 49.0367 106.178 49.7117 106.008 50.4591C105.935 50.8448 106.032 51.1823 106.275 51.4475C106.42 51.6163 106.979 52.0502 108.459 52.0502C108.798 52.0502 109.187 52.0261 109.648 51.9779C109.914 52.6047 110.545 53.0387 111.249 53.0387H120.129C120.615 53.0387 121.051 52.8458 121.367 52.5324C121.682 52.8458 122.119 53.0387 122.604 53.0387H123.235C123.696 53.0387 124.133 52.8458 124.448 52.5565V53.0387C124.448 53.0387 126.947 53.0387 127.336 53.0387C127.36 54.003 127.675 54.9674 128.767 55.4254C129.058 55.546 129.374 55.5942 129.689 55.5942C130.514 55.5942 131.315 55.2084 131.63 54.5575C131.776 54.2923 131.921 53.6896 131.412 53.0146H133.959C134.93 53.0146 135.706 52.2431 135.706 51.2788V45.4204H134.663V51.327ZM107.051 50.7966C107.051 50.7725 107.027 50.7725 107.051 50.7243C107.173 50.0974 108.459 49.4465 109.526 49.109V51.0136C108.507 51.11 107.294 51.0618 107.051 50.7966ZM128.694 51.2305C129.058 50.1698 129.592 49.543 129.762 49.543C129.762 49.543 130.029 49.6394 130.344 50.6761C130.441 51.0377 130.344 51.2305 130.271 51.327C129.98 51.6886 129.252 51.8815 128.476 51.9538C128.549 51.7368 128.622 51.4957 128.694 51.2305ZM130.708 54.1477C130.563 54.4611 129.81 54.7504 129.155 54.4852C128.622 54.2682 128.355 53.7619 128.355 53.0146C128.913 52.9664 129.495 52.8699 129.98 52.7012L129.786 53.0628C130.466 53.4726 130.829 53.8825 130.708 54.1477Z" fill="black"/>
<path d="M31.0355 45.4705H29.9922V52.8476H31.0355V45.4705Z" fill="black"/>
<path d="M27.2742 51.3251C27.2742 51.7108 26.9588 52.0242 26.5705 52.0242H24.5082C24.5324 51.976 24.5324 51.9519 24.5567 51.9037C24.8721 51.1081 24.678 50.1438 24.4111 49.5893C24.0472 48.8178 23.392 48.3597 22.6884 48.3597C21.9848 48.3597 21.3297 48.8178 20.9414 49.6134C20.7473 49.9991 20.626 50.3607 20.5047 50.6983C20.1893 51.6385 20.0437 52.0242 19.0004 52.0242H18.0056C17.7629 49.517 15.4336 48.2874 15.3366 48.2151L14.8513 49.1312C14.8756 49.1312 16.7196 50.1197 16.9622 52.0001H13.7109V53.0368H19.0246C19.7768 53.0368 20.2863 52.8439 20.626 52.5546C21.1355 52.8921 21.912 53.0368 22.5913 53.0368C22.9796 53.0368 23.3193 52.9886 23.5619 52.8921C23.6104 52.868 23.6832 52.8439 23.7317 52.8198V53.0368H26.5705C27.5411 53.0368 28.3175 52.2653 28.3175 51.301V45.4426H27.2742V51.3251ZM23.5861 51.5421C23.5134 51.759 23.3678 51.8796 23.1737 51.9519C22.7369 52.1207 21.6208 51.976 21.2083 51.7349C21.3054 51.4938 21.4024 51.2528 21.4752 51.0117C21.5723 50.6983 21.6936 50.3849 21.8392 50.0714C22.0576 49.6616 22.3487 49.3964 22.6641 49.3964C22.9553 49.3964 23.2465 49.6375 23.4406 50.0473C23.6347 50.4572 23.756 51.084 23.5861 51.5421Z" fill="black"/>
<path d="M84.7073 48.3837C83.9794 48.3837 83.3243 48.8418 82.9361 49.6373C82.742 50.0231 82.6207 50.3847 82.5236 50.6981C82.2082 51.6384 82.0626 52.0241 81.0193 52.0241H76.7732C76.385 52.0241 76.0695 51.7107 76.0695 51.3249V47.4917H75.0262V47.9739C74.7351 48.0703 74.177 48.2391 73.5947 48.5043C72.3572 49.0587 71.6779 49.7338 71.508 50.4811C71.4352 50.8669 71.5323 51.2044 71.7749 51.4696C71.9205 51.6384 72.4785 52.0723 73.9586 52.0723C74.2983 52.0723 74.6865 52.0482 75.1475 52C75.4144 52.6268 76.0453 53.0607 76.7489 53.0607H80.995C81.7472 53.0607 82.2567 52.8679 82.5964 52.5786C83.3728 53.0849 84.8772 53.1813 85.5323 52.9161C85.9933 52.7473 86.3572 52.3857 86.5271 51.9035C86.8425 51.108 86.6484 50.1436 86.3815 49.5891C86.0661 48.8418 85.411 48.3837 84.7073 48.3837ZM72.5513 50.7946C72.5513 50.7946 72.5271 50.7704 72.5513 50.7222C72.6727 50.0954 73.9586 49.4445 75.0262 49.107V51.0115C74.0071 51.108 72.8182 51.0597 72.5513 50.7946ZM85.6051 51.5419C85.5323 51.7589 85.3867 51.8794 85.1926 51.9518C84.7558 52.1205 83.6397 51.9759 83.2272 51.7348C83.3243 51.4937 83.4214 51.2526 83.4941 51.0115C83.5912 50.6981 83.7125 50.3847 83.8581 50.0713C84.0765 49.6615 84.3676 49.3963 84.683 49.3963C84.9742 49.3963 85.2654 49.6374 85.4595 50.0472C85.6778 50.457 85.7992 51.0839 85.6051 51.5419Z" fill="black"/>
<path d="M67.3809 51.3251C67.3809 51.7108 67.0655 52.0242 66.6773 52.0242H66.0464C65.6582 52.0242 65.3428 51.7108 65.3428 51.3251V45.4667H64.2995V51.3251C64.2995 51.7108 63.984 52.0242 63.5958 52.0242H62.0915C62.0672 50.9876 61.8731 49.7098 61.0239 48.9866C60.0291 48.1669 58.6704 48.6732 57.7241 49.2759C57.166 49.6134 56.6565 50.0473 56.1712 50.5054V45.4426H55.1279V52.0001H50.8575C50.9546 51.7831 51.0031 51.5421 51.0031 51.301V48.7696H49.9598V51.301C49.9598 51.6867 49.6444 52.0001 49.2561 52.0001H47.0482C46.66 52.0001 46.3445 51.6867 46.3445 51.301V48.7696H45.2527V52.7957C45.2527 53.5913 44.5976 54.2422 43.7969 54.2422V55.2789C45.1314 55.2789 46.2475 54.2181 46.296 52.8921C46.5144 52.9886 46.757 53.0368 46.9996 53.0368H49.2076C49.5716 53.0368 49.887 52.9404 50.1539 52.7475V53.0368H63.5473C64.0326 53.0368 64.4693 52.8439 64.7847 52.5305C65.1002 52.8439 65.5369 53.0368 66.0222 53.0368H66.653C67.6235 53.0368 68.4 52.2653 68.4 51.301V45.4426H67.3566V51.3251H67.3809ZM56.147 51.6626C56.5837 51.2528 57.0447 50.867 57.5542 50.5295C58.1123 50.1438 58.7431 49.758 59.4225 49.6616C59.7137 49.6134 60.0291 49.6134 60.2475 49.8063C60.4658 49.9509 60.5872 50.192 60.6842 50.409C60.9026 50.9152 60.9754 51.4938 60.9996 52.0483H56.1227L56.147 51.6626Z" fill="black"/>
<path d="M11.4037 51.3242C11.4037 51.7099 11.0883 52.0233 10.7001 52.0233H10.2391C9.82663 52.0233 9.48694 51.7099 9.48694 51.3242V49.95C9.48694 49.516 9.31709 49.1544 9.00167 48.9133C8.63772 48.624 8.15245 48.5517 7.61866 48.6722C6.64812 48.8892 5.94448 49.7089 5.94448 50.6009V52.9635C5.94448 53.2528 5.67758 53.4216 5.45921 53.518C4.77984 53.8073 3.59093 53.7109 2.88729 53.0118C2.20792 52.3608 2.11086 51.3242 2.6204 49.9982L1.64986 49.6366C0.752113 51.951 1.60133 53.2046 2.15939 53.7591C2.83876 54.4101 3.78504 54.6994 4.60999 54.6994C5.071 54.6994 5.50774 54.6029 5.87169 54.4583C6.57533 54.169 6.98781 53.6145 6.98781 52.9635V50.6009C6.98781 50.1911 7.35176 49.8053 7.86129 49.6848C8.10392 49.6366 8.29803 49.6848 8.37082 49.733C8.39508 49.7571 8.46788 49.8053 8.46788 49.9741V51.3483C8.46788 52.2885 9.29283 53.0841 10.2634 53.0841H10.7244C11.6949 53.0841 12.4713 52.3126 12.4713 51.3483V48.8169H11.428V51.3242H11.4037Z" fill="black"/>
<path d="M39.6875 52.9635C39.6875 53.2528 39.4206 53.4216 39.2022 53.518C38.5228 53.8073 37.3339 53.7109 36.606 53.0118C35.9267 52.3608 35.8296 51.3242 36.3391 49.9982L35.3686 49.6366C34.4709 51.951 35.3201 53.2046 35.8781 53.7591C36.5575 54.4101 37.5038 54.6994 38.3287 54.6994C38.7897 54.6994 39.2265 54.6029 39.5904 54.4583C40.2941 54.169 40.7066 53.6145 40.7066 52.9635V48.8169H39.6632L39.6875 52.9635Z" fill="black"/>
<path d="M99.5058 51.3251C99.5058 51.7108 99.1903 52.0242 98.8021 52.0242H98.4139C97.3948 52.0483 96.5214 51.9519 95.8177 51.7831C95.842 51.759 95.8662 51.7349 95.8905 51.7108C96.1089 51.518 97.225 50.5295 97.0551 49.517C97.0066 49.1794 96.764 48.7455 96.0603 48.4803L96.0118 48.4562H95.9633C95.0413 48.3356 94.0707 48.3356 93.1487 48.4321H93.1002L93.0517 48.4562C92.4694 48.6732 92.251 49.0348 92.2025 49.3241C92.0084 50.2161 92.9304 51.2287 93.3428 51.6385C93.4156 51.7108 93.4642 51.759 93.5369 51.8073C92.9546 51.9519 92.3238 52.0001 91.5959 52.0001H90.0673C89.6791 52.0001 89.3636 51.6867 89.3636 51.301V45.4426H88.3203V51.301C88.3203 52.2653 89.0967 53.0368 90.0673 53.0368H91.5959C92.809 53.0368 93.7796 52.9404 94.7259 52.4823C95.6964 52.868 96.9338 53.0368 98.4624 53.0368H98.8264C99.7969 53.0368 100.573 52.2653 100.573 51.301V45.4426H99.53V51.3251H99.5058ZM95.2354 50.9394C95.0413 51.1081 94.8472 51.2528 94.6531 51.3492C94.4104 51.2287 94.2163 51.084 94.0465 50.9152C93.4642 50.3366 93.1487 49.7821 93.1973 49.5652C93.1973 49.5411 93.2701 49.4928 93.3186 49.4687C94.1435 49.3964 94.9442 49.3964 95.7692 49.4928C95.8905 49.5411 96.0118 49.6134 96.0361 49.7098C96.0846 49.9991 95.7207 50.5295 95.2354 50.9394Z" fill="black"/>
</svg>
