<svg width="24" height="24" viewBox="0 0 24 24" fill="none" xmlns="http://www.w3.org/2000/svg">
<path d="M18.8153 13.5799C21.1073 15.7179 22.3613 17.5799 21.9073 18.4799C21.1623 19.9399 16.1243 18.2209 10.6523 14.6419C5.18233 11.0629 1.34833 6.97794 2.09233 5.51894C2.55633 4.60894 5.01833 5.07494 7.89533 6.32394" stroke="#4B465C" stroke-width="1.5" stroke-linecap="round" stroke-linejoin="round"/>
<path d="M18.8153 13.5799C21.1073 15.7179 22.3613 17.5799 21.9073 18.4799C21.1623 19.9399 16.1243 18.2209 10.6523 14.6419C5.18233 11.0629 1.34833 6.97794 2.09233 5.51894C2.55633 4.60894 5.01833 5.07494 7.89533 6.32394" stroke="white" stroke-opacity="0.2" stroke-width="1.5" stroke-linecap="round" stroke-linejoin="round"/>
<circle cx="12" cy="12" r="7" stroke="#4B465C" stroke-width="1.5" stroke-linecap="round" stroke-linejoin="round"/>
<circle cx="12" cy="12" r="7" stroke="white" stroke-opacity="0.2" stroke-width="1.5" stroke-linecap="round" stroke-linejoin="round"/>
</svg>
