<svg width="24" height="24" viewBox="0 0 24 24" fill="none" xmlns="http://www.w3.org/2000/svg">
<path fill-rule="evenodd" clip-rule="evenodd" d="M15.1594 11.8106L19.989 13.1047C21.0559 13.3906 21.6891 14.4872 21.4032 15.5542C21.1173 16.6211 20.0206 17.2543 18.9537 16.9684L4.46483 13.0861L3.11997 6.51408L6.01774 7.29053L7.43196 9.74002L10.3297 10.5165L10.2096 3.23736L13.1074 4.01382L15.1594 11.8106Z" stroke="#4B465C" stroke-width="1.5" stroke-linecap="round" stroke-linejoin="round"/>
<path fill-rule="evenodd" clip-rule="evenodd" d="M15.1594 11.8106L19.989 13.1047C21.0559 13.3906 21.6891 14.4872 21.4032 15.5542C21.1173 16.6211 20.0206 17.2543 18.9537 16.9684L4.46483 13.0861L3.11997 6.51408L6.01774 7.29053L7.43196 9.74002L10.3297 10.5165L10.2096 3.23736L13.1074 4.01382L15.1594 11.8106Z" stroke="white" stroke-opacity="0.2" stroke-width="1.5" stroke-linecap="round" stroke-linejoin="round"/>
<path d="M3 21H21" stroke="#4B465C" stroke-width="1.5" stroke-linecap="round" stroke-linejoin="round"/>
<path d="M3 21H21" stroke="white" stroke-opacity="0.2" stroke-width="1.5" stroke-linecap="round" stroke-linejoin="round"/>
</svg>
