<svg width="75" height="100" viewBox="0 0 75 100" fill="none" xmlns="http://www.w3.org/2000/svg">
<path d="M23.2492 23.8887C25.7564 27.7448 29.7254 30.0031 33.2991 32.6057C38.0725 36.0823 42.3552 40.4012 45.933 45.3515C48.3724 48.7284 50.5173 53.59 48.3137 57.1701C46.1618 60.6544 40.6625 59.8405 38.8846 56.1005C37.1066 52.3606 38.9525 47.3139 42.2945 45.3263C45.6364 43.3388 49.9343 44.1124 53.0535 46.5035C56.1727 48.8945 58.2596 52.6733 59.5994 56.6329C62.0573 63.9097 62.2484 71.8727 63.6586 79.4928C65.0689 87.1129 68.1778 95.0328 74.3411 98.6554" stroke="#F4F6FF" stroke-miterlimit="10" stroke-dasharray="2 2"/>
<path d="M33.6956 10.6977C33.9069 11.4841 33.5962 12.3534 32.812 12.7937L21.4948 19.0811L29.5159 26.9435L33.4144 26.2751C33.8976 26.1903 34.4011 26.3328 34.7704 26.6581C35.0191 26.8746 35.1775 27.1413 35.2536 27.42C35.4156 28.0278 35.1887 28.6919 34.5878 29.0462L31.8805 30.5225L33.2019 31.7719C33.3062 31.8757 33.3745 31.9921 33.4156 32.1272C33.4849 32.3697 33.4196 32.6317 33.233 32.822C32.942 33.1092 32.4484 33.099 32.1471 32.8084L30.8332 31.5578L29.7458 34.2775C29.3005 35.1663 28.0799 35.3727 27.297 34.6914C27.0571 34.481 26.8913 34.2154 26.8124 33.9223C26.7671 33.7655 26.7504 33.5971 26.7636 33.4244L27.0597 29.6162L17.739 23.0783L12.383 34.5629C11.844 35.7252 10.2625 36.0136 9.24857 35.128C8.94399 34.8602 8.73307 34.5194 8.63292 34.1551C8.5609 33.8982 8.5487 33.6326 8.59021 33.3667L9.54677 27.7027L8.75405 27.4536C8.40225 27.3411 8.15001 27.0657 8.06698 26.7509C8.02034 26.5869 8.02467 26.408 8.07661 26.2371C8.23381 25.7316 8.78866 25.4582 9.31871 25.6191L9.87395 25.7913L10.2546 23.5156L9.25848 23.2067C8.90806 23.1015 8.65444 22.8189 8.57141 22.5041C8.52478 22.34 8.5291 22.1612 8.58104 21.9903C8.73825 21.4848 9.29309 21.2114 9.82314 21.3723L10.5832 21.6113L11.2864 17.4397L3.39745 10.5534C3.39745 10.5534 0.859888 8.28426 0.363852 6.4474C0.212937 5.89739 0.247757 5.39476 0.571807 4.9988C2.44704 2.7444 7.23096 6.6416 7.23096 6.6416L15.0361 13.4509L18.6898 12.5061L18.2085 11.1498C18.2085 11.1498 18.1988 11.0992 18.1872 11.0786C18.0562 10.5926 18.3297 10.0925 18.8318 9.94558C19.355 9.78816 19.9248 10.077 20.1048 10.5782L20.6162 12.0118L22.9082 11.4201L22.6138 10.6012C22.6138 10.6012 22.6042 10.5506 22.5926 10.53C22.4615 10.044 22.735 9.54394 23.2371 9.39699C23.7603 9.23956 24.3301 9.52842 24.5101 10.0297L24.8257 10.9197L31.1968 9.27706C31.8559 9.10738 32.5648 9.27955 33.0813 9.73208C33.3947 10.0061 33.5982 10.3479 33.6969 10.705" fill="#0076C7" fill-opacity="0.2"/>
<path d="M0.575457 4.99899C-0.855714 6.72122 3.3828 10.5785 3.3828 10.5785L11.2717 17.4648L10.5686 21.6365L9.80851 21.3974C9.27707 21.2293 8.72361 21.5099 8.56641 22.0154C8.40921 22.5209 8.71988 23.0626 9.25132 23.2308L10.2475 23.5396L9.86679 25.8153L9.31155 25.6432C8.78012 25.475 8.22665 25.7557 8.06945 26.2612C7.91225 26.7667 8.22293 27.3084 8.75436 27.4765L9.54709 27.7257L8.59053 33.3897C8.48331 34.0364 8.7263 34.7068 9.24279 35.1593C10.2567 36.0449 11.8307 35.7576 12.3773 34.5942L17.7332 23.1095L27.0539 29.6474L26.7578 33.4557C26.725 33.9283 26.9131 34.3912 27.2898 34.7154C28.0727 35.3968 29.2934 35.1904 29.7386 34.3015L30.8261 31.5819L32.14 32.8325C32.4487 33.122 32.9335 33.1261 33.2259 32.8461C33.5169 32.5589 33.5049 32.0928 33.2037 31.8022L31.8822 30.5527L34.5896 29.0765C35.46 28.5643 35.555 27.3697 34.7721 26.6883C34.4028 26.363 33.8993 26.2205 33.4161 26.3053L29.5176 26.9737L21.4965 19.1113L32.8137 12.8239C33.9606 12.19 34.0955 10.6406 33.083 9.76227C32.5665 9.30974 31.8501 9.13865 31.1985 9.30725L24.8274 10.9499L24.5118 10.0598C24.3304 9.55137 23.762 9.26975 23.2388 9.42718C22.7156 9.5846 22.4416 10.1219 22.623 10.6303L22.9173 11.4492L20.6254 12.0409L20.114 10.6073C19.9326 10.0989 19.3641 9.81726 18.841 9.97469C18.3178 10.1321 18.0437 10.6694 18.2251 11.1778L18.7064 12.5341L15.0527 13.4789L7.2476 6.66961C7.2476 6.66961 2.46368 2.77242 0.588443 5.02682L0.575457 4.99899Z" fill="white"/>
<path d="M28.4424 28.0753L28.3647 28.1516C28.0899 28.4213 28.1077 28.8564 28.4044 29.1235L32.4448 32.7609C32.7415 33.028 33.2047 33.0259 33.4795 32.7562L33.5572 32.6799C33.832 32.4102 33.8142 31.975 33.5175 31.7079L29.4772 28.0706C29.1805 27.8034 28.7172 27.8056 28.4424 28.0753Z" fill="#BACCCE"/>
<path d="M17.5128 23.0927L15.701 21.5202L12.3213 31.387C12.3213 31.387 13.1958 32.3703 13.2725 32.2111C13.3492 32.052 17.5128 23.0927 17.5128 23.0927Z" fill="#BACCCE"/>
<path d="M21.5949 19.062L19.7289 17.4419L28.5189 13.736L29.5396 14.62L21.5949 19.062Z" fill="#BACCCE"/>
<path d="M27.0547 17.5283L33.6905 23.7842" stroke="#F4F6FF" stroke-miterlimit="10" stroke-linecap="round"/>
<path d="M26.8672 20.489L30.3739 23.6068" stroke="#F4F6FF" stroke-miterlimit="10" stroke-linecap="round"/>
<path d="M18.1484 26.5449L22.4237 30.5789" stroke="#F4F6FF" stroke-miterlimit="10" stroke-linecap="round"/>
<path d="M16.9453 28.3147L22.7972 33.832" stroke="#F4F6FF" stroke-miterlimit="10" stroke-linecap="round"/>
</svg>
