<svg width="400" height="131" viewBox="0 0 400 131" fill="none" xmlns="http://www.w3.org/2000/svg">
<path fill-rule="evenodd" clip-rule="evenodd" d="M176.125 78.1145C175.852 78.1855 175.833 78.7145 175.833 86.2575V94.3255L175.39 94.6155C174.715 95.0575 171.953 95.1245 171.17 94.7175C170.132 94.1785 169.462 92.8325 170.232 92.8325C170.711 92.8325 170.833 92.5635 170.833 91.5105V90.7155L169.125 90.6045C166.974 90.4645 166.377 90.2815 163.821 88.9745C160.313 87.1815 157.804 87.4605 157.7 89.6545C157.654 90.6155 157.676 90.6975 157.95 90.5815C160.009 89.7115 160.721 89.7885 163.416 91.1795C164.554 91.7665 165.433 92.2965 165.368 92.3565C165.001 92.6985 161.727 94.1975 160.665 94.5095C159.602 94.8225 158.883 94.8885 155.82 94.9555L152.224 95.0355L152.034 93.6965C151.092 87.0315 145.502 86.3765 144.34 92.7945C143.769 95.9485 145.028 97.3325 148.469 97.3325C150.524 97.3325 150.512 97.3245 149.981 98.3815C149.024 100.289 147.021 101.022 144.854 100.257L144.167 100.015V101.149V102.283L145.019 102.558C148.307 103.62 151.074 101.711 151.905 97.8055L151.999 97.3615L155.625 97.2915C160.144 97.2045 161.189 96.9395 164.145 95.1275C164.753 94.7545 165.925 94.1205 166.75 93.7175L168.25 92.9855L168.39 93.5345C169.149 96.5005 170.313 97.4155 173.193 97.3075C175.073 97.2375 176.06 96.8285 176.748 95.8355C177.652 94.5315 177.651 94.5365 177.659 85.9575L177.667 77.9995L177.042 78.0185C176.698 78.0295 176.285 78.0725 176.125 78.1145ZM180.958 78.1145C180.685 78.1855 180.667 78.7865 180.667 87.7615V97.3325H181.583H182.5V87.6665V77.9995L181.875 78.0185C181.531 78.0295 181.119 78.0725 180.958 78.1145ZM228.958 78.1145C228.686 78.1855 228.667 78.6625 228.667 85.1675V92.1435L227.912 92.7615C226.997 93.5115 227.06 93.5695 226.834 91.7565C226.454 88.7005 224.513 84.8215 221.929 81.9575L221.365 81.3315L220.757 82.1795C220.145 83.0305 220.138 83.1575 220.671 83.6665C223.062 85.9485 225.508 91.2705 225.305 93.7495L225.25 94.4165L223.833 94.8825C223.054 95.1385 221.941 95.3935 221.359 95.4495L220.302 95.5505L220.401 96.0455C220.455 96.3185 220.501 96.7385 220.503 96.9785C220.507 97.7705 220.643 97.8315 222.005 97.6495C224.381 97.3335 226.803 96.2955 228.179 95.0035L228.996 94.2355L229.262 95.0355C229.891 96.9295 230.796 97.3325 234.417 97.3325C237.31 97.3325 237.862 97.2285 238.782 96.5045C239.199 96.1765 239.219 96.1755 239.481 96.4745C240.478 97.6175 243.296 97.8155 245.153 96.8735C246.077 96.4055 246.258 96.3625 246.486 96.5625C247.91 97.8065 251.443 97.5905 252.716 96.1815L253.281 95.5565L253.819 96.1975C255.048 97.6615 258.617 97.8005 260.128 96.4425C261.542 95.1705 261.667 94.2765 261.667 85.3855V77.9995L261.042 78.0015C260.698 78.0035 260.248 78.0495 260.042 78.1045L259.667 78.2055V86.2435C259.667 95.8425 259.934 94.9165 257.162 94.9165C253.913 94.9165 254.029 95.2625 254.013 85.5415L254 77.9995H253.347C252.065 77.9995 252.167 77.2945 252.167 86.1835C252.167 95.7495 252.374 95.1895 248.911 94.9685C247.548 94.8825 247.513 94.8455 246.063 92.0175C245.434 90.7895 244.654 89.4865 244.33 89.1215C242.463 87.0175 239.064 89.4245 238.719 93.0945C238.563 94.7575 238.199 94.9165 234.558 94.9165C230.26 94.9165 230.5 95.4945 230.5 85.1435V77.9995L229.875 78.0185C229.531 78.0295 229.119 78.0725 228.958 78.1145ZM301.125 78.1145C300.853 78.1855 300.833 78.6595 300.833 85.0965V92.0025L299.958 93.5115L299.083 95.0215L298.065 94.9355C296.539 94.8065 295.787 94.3975 295.896 93.7545C295.943 93.4765 296.026 92.7245 296.08 92.0825C296.134 91.4415 296.218 90.5975 296.266 90.2075L296.354 89.4995H295.427C294.579 89.4995 294.499 89.5315 294.492 89.8745C294.447 91.9575 294.043 94.0635 293.619 94.4275C292.82 95.1145 289.938 95.1955 288.622 94.5675C287.926 94.2355 287.943 94.3075 288.154 92.6365C288.239 91.9655 288.346 90.9845 288.392 90.4575L288.476 89.4995H287.59H286.705L286.606 90.2075C286.552 90.5975 286.458 91.5755 286.397 92.3815C286.216 94.7755 285.851 94.9975 282.083 94.9985C277.962 94.9995 277.935 94.9625 277.863 89.1545L277.808 84.8325H276.904H276V85.6545V86.4765L274.631 87.2795C271.639 89.0345 270.085 91.1455 270.462 92.9425C270.902 95.0395 272.764 95.9085 275.399 95.2475C276.474 94.9785 276.558 94.9775 276.704 95.2395C277.673 96.9695 278.577 97.3245 282.028 97.3295C284.982 97.3335 285.782 97.1655 286.583 96.3765C286.915 96.0495 286.919 96.0495 287.386 96.4385C288.697 97.5315 292.419 97.6815 293.987 96.7065L294.86 96.1635L295.286 96.4985C296.909 97.7745 307.01 97.7055 309.772 96.3985C312.102 95.2965 312.828 92.8955 311.61 90.3215C309.925 86.7595 306.629 85.9925 303.833 88.5125C303.512 88.8015 303.1 89.1755 302.917 89.3425C302.584 89.6455 302.583 89.6375 302.631 83.8225L302.679 77.9995L302.048 78.0185C301.701 78.0295 301.285 78.0725 301.125 78.1145ZM326.542 78.1095C326.379 78.1755 326.333 79.9325 326.333 86.1075C326.333 91.1265 326.272 94.1365 326.165 94.3365C325.93 94.7745 324.991 94.9975 323.378 94.9985C321.841 94.9995 321.952 95.1045 321.767 93.4805C321.094 87.5865 316.142 86.4655 314.344 91.7995C313.139 95.3775 314.512 97.3325 318.228 97.3325H320.135L319.953 97.9285C319.33 99.9585 316.894 101.036 314.688 100.257L314 100.015V101.147C314 102.522 314.196 102.668 316.211 102.795C318.833 102.96 320.636 101.48 321.483 98.4665L321.779 97.4165L323.515 97.3195C327.918 97.0755 328.162 96.4625 328.165 85.6245L328.167 77.9995L327.458 78.0125C327.069 78.0195 326.656 78.0635 326.542 78.1095ZM331.292 78.1145C331.018 78.1855 331 78.7865 331 87.7615V97.3325H332H333V87.6665V77.9995L332.292 78.0185C331.902 78.0295 331.452 78.0725 331.292 78.1145ZM356.792 78.1145C356.52 78.1855 356.5 78.6605 356.5 85.1105C356.5 91.5575 356.479 92.0615 356.193 92.4735C356.025 92.7175 355.633 93.3845 355.322 93.9575L354.756 94.9995H352.956C349.375 94.9995 349.268 94.8325 349.196 89.1245L349.142 84.8325H348.238H347.333V85.6545V86.4765L345.983 87.2795C342.07 89.6065 340.662 92.4585 342.473 94.3895C343.455 95.4365 345.667 95.7815 347.258 95.1365L347.932 94.8625L348.142 95.3375C348.976 97.2215 349.606 97.3635 356.841 97.2925C363.248 97.2295 363.807 97.1695 365.481 96.3605C366.11 96.0565 366.116 96.0575 366.599 96.4435C368.664 98.0965 374.127 97.5295 377.833 95.2765C379.006 94.5645 381.156 93.4455 381.845 93.1895C382.262 93.0345 382.278 93.0555 382.47 93.9815C383.311 98.0545 389.33 98.7835 391.192 95.0375L391.583 94.2495L391.631 86.1245L391.679 77.9995L391.131 78.0015C390.83 78.0035 390.415 78.0495 390.208 78.1045L389.833 78.2055V86.1135C389.833 91.1275 389.772 94.1365 389.665 94.3365C389.284 95.0475 386.318 95.2635 385.091 94.6695C384.019 94.1505 383.401 92.8325 384.229 92.8325C384.653 92.8325 384.833 92.3625 384.833 91.2535V90.7155L383.125 90.6045C380.988 90.4655 380.449 90.2995 377.687 88.9345C375.102 87.6575 374.066 87.5085 372.489 88.1865L371.667 88.5405V89.6215C371.667 90.5865 371.698 90.6885 371.958 90.5785C374.112 89.6645 374.576 89.7295 377.811 91.3955L379.539 92.2845L377.713 93.2185C373.765 95.2375 367.085 95.7385 367.702 93.9695C368.218 92.4895 367.308 89.7685 365.808 88.3085C363.881 86.4315 361.653 86.5725 359.25 88.7235L358.25 89.6185L358.302 83.8095L358.353 77.9995L357.718 78.0185C357.369 78.0295 356.952 78.0725 356.792 78.1145ZM394.958 78.1145C394.685 78.1855 394.667 78.7865 394.667 87.7615V97.3325H395.583H396.5V87.6665V77.9995L395.875 78.0185C395.531 78.0295 395.119 78.0725 394.958 78.1145ZM193.179 79.7645C192.495 80.3395 192.445 81.4605 193.076 82.0905C193.662 82.6765 194.699 82.6615 195.258 82.0585C196.172 81.0725 195.475 79.3325 194.167 79.3325C193.899 79.3325 193.468 79.5215 193.179 79.7645ZM197.154 79.8205C195.695 81.2785 197.714 83.4915 199.226 82.0905C200.192 81.1955 199.476 79.3325 198.167 79.3325C197.808 79.3325 197.486 79.4875 197.154 79.8205ZM117.773 79.9385C116.741 80.9715 117.381 82.6695 118.801 82.6635C119.503 82.6605 119.658 82.5785 120.051 82.0045C121.092 80.4835 119.065 78.6465 117.773 79.9385ZM121.995 79.7815C121.41 80.1825 121.339 80.3275 121.336 81.1325C121.331 82.4655 122.851 83.2125 123.789 82.3385C125.187 81.0355 123.557 78.7125 121.995 79.7815ZM272.065 79.8895C271.015 80.7925 271.702 82.6665 273.083 82.6665C273.991 82.6665 274.583 82.0415 274.583 81.0825C274.583 79.6785 273.118 78.9845 272.065 79.8895ZM276.083 79.9015C274.608 81.3765 276.54 83.6195 278.116 82.2635C278.504 81.9295 278.583 81.7295 278.583 81.0825C278.583 79.6765 277.037 78.9465 276.083 79.9015ZM295.218 80.2355C294.829 80.5695 294.75 80.7695 294.75 81.4165C294.75 83.1865 296.986 83.6415 297.663 82.0095C298.295 80.4835 296.469 79.1585 295.218 80.2355ZM343.708 80.0045C342.653 80.4285 342.629 82.0965 343.668 82.7965C344.372 83.2715 344.902 83.1845 345.542 82.4905C346.717 81.2165 345.34 79.3485 343.708 80.0045ZM347.639 80.0875C347.128 80.3655 346.769 81.2675 346.923 81.8835C347.29 83.3445 349.374 83.4755 349.838 82.0675C350.324 80.5945 348.962 79.3685 347.639 80.0875ZM375.742 80.5755C374.791 81.5265 375.523 83.3325 376.859 83.3325C378.158 83.3325 378.851 81.2895 377.831 80.4645C377.279 80.0175 376.246 80.0715 375.742 80.5755ZM122 85.6535V86.4755L121.042 87.0175C118.167 88.6425 116.333 90.7125 116.333 92.3315C116.333 94.6745 118.541 95.9775 121.309 95.2685C122.65 94.9255 122.539 94.9035 122.905 95.5835C123.805 97.2545 124.219 97.3325 132.105 97.3325C142.096 97.3325 142.545 96.9655 141.562 89.5925L141.29 87.5565L140.492 87.7365C139.438 87.9745 139.487 87.7715 139.843 90.4165C140.509 95.3545 141.104 94.9995 132.156 94.9985C123.266 94.9985 123.941 95.4765 123.865 89.1325L123.813 84.8325H122.906H122V85.6535ZM196.833 85.6645C196.833 86.4625 196.805 86.5125 196.125 86.9325C191.97 89.4985 190.637 91.5345 191.651 93.7655C192.363 95.3345 194.798 95.9575 196.855 95.0975L197.448 94.8495L197.807 95.4875C198.179 96.1495 198.912 96.7805 199.716 97.1305C200.028 97.2655 201.225 97.3325 203.331 97.3325C207.5 97.3325 209.028 96.9995 211.417 95.5715C214.709 93.6025 216.527 92.8325 217.881 92.8325C218.698 92.8325 218.833 92.7885 218.833 92.5225C218.833 92.3525 218.879 91.8765 218.936 91.4655L219.038 90.7175L217.308 90.6055C215.04 90.4595 214.645 90.3415 212.083 89.0435C209.383 87.6755 208.183 87.4955 206.602 88.2195L205.667 88.6475V89.6765C205.667 90.8205 205.562 90.7765 207 90.2445C208.055 89.8535 209.211 90.0055 210.612 90.7185C211.238 91.0375 212.185 91.5215 212.716 91.7935L213.683 92.2895L211.883 93.2075C209.013 94.6715 208.186 94.8585 204.147 94.9545C198.75 95.0835 198.937 95.2865 198.865 89.2075L198.813 84.8325H197.823H196.833V85.6645ZM122 90.7235V92.7805L121.356 92.9735C120.013 93.3755 117.833 92.9305 117.833 92.2535C117.833 91.7145 121.208 88.7845 121.958 88.6725C121.981 88.6685 122 89.5915 122 90.7235ZM276 90.7235V92.7805L275.356 92.9735C274.004 93.3775 271.833 92.9305 271.833 92.2465C271.833 91.7485 275.24 88.7975 275.958 88.6735C275.981 88.6695 276 89.5915 276 90.7235ZM347.377 90.9315L347.439 92.7795L346.717 92.9735C344.633 93.5305 342.821 92.8225 343.495 91.7145C344.005 90.8755 347.216 88.4755 347.282 88.8835C347.3 88.9935 347.342 89.9145 347.377 90.9315ZM196.895 89.2075C196.95 89.4145 196.996 90.3045 196.998 91.1865L197 92.7895L196.251 92.9995C194.876 93.3845 192.97 92.9535 192.867 92.2345C192.806 91.8095 194.049 90.5635 195.54 89.5565C196.77 88.7245 196.766 88.7255 196.895 89.2075ZM308.647 89.9025C310.521 91.2005 311.145 93.3305 309.846 93.9925C308.407 94.7275 301 95.4725 301 94.8835C301 94.6145 302.657 92.2885 303.389 91.5285C305.473 89.3665 307.132 88.8525 308.647 89.9025ZM364.21 89.8295C364.944 90.3335 365.766 91.4415 366.122 92.4055L366.417 93.2015L365.855 93.6715C364.664 94.6665 356.034 95.7265 356.605 94.8075C359.481 90.1795 362.164 88.4235 364.21 89.8295ZM148.985 91.1525C149.614 91.7395 150.268 93.1285 150.424 94.2075L150.538 94.9995H148.811C146.178 94.9985 145.419 94.5065 145.806 93.0485C146.357 90.9735 147.845 90.0865 148.985 91.1525ZM243.288 91.2785C243.779 91.7985 245 93.9795 245 94.3355C245 95.0285 241.549 95.3495 240.721 94.7325C239.823 94.0655 240.112 92.1885 241.267 91.1735C242.047 90.4885 242.568 90.5155 243.288 91.2785ZM318.386 90.8525C319.207 91.2725 320.319 93.5245 320.331 94.7915C320.337 95.3845 315.998 94.9525 315.663 94.3265C314.816 92.7445 316.896 90.0905 318.386 90.8525ZM281.154 99.3205C279.874 100.6 281.427 102.675 283.025 101.82C283.21 101.721 283.467 101.388 283.595 101.08C284.295 99.4045 282.42 98.0535 281.154 99.3205ZM285.218 99.2355C284.829 99.5695 284.75 99.7695 284.75 100.417C284.75 102.187 286.986 102.642 287.663 101.01C288.295 99.4835 286.469 98.1585 285.218 99.2355ZM165.226 99.1585C164.296 99.5505 164.031 100.963 164.734 101.78C165.289 102.426 166.385 102.417 166.949 101.761C168.022 100.515 166.71 98.5335 165.226 99.1585ZM133.742 99.5755C132.82 100.499 133.545 102.333 134.833 102.333C135.631 102.333 136.333 101.555 136.333 100.672C136.333 99.7275 135.774 99.1665 134.833 99.1665C134.332 99.1665 134.043 99.2745 133.742 99.5755ZM137.742 99.5755C136.82 100.499 137.545 102.333 138.833 102.333C140.076 102.333 140.796 100.633 139.988 99.6055C139.507 98.9945 138.339 98.9785 137.742 99.5755ZM119.116 109.73C117.268 110.42 116.167 111.996 116.167 113.949C116.167 116.436 117.222 117.432 120.917 118.432C124.184 119.316 125.252 120.581 124.177 122.293C122.638 124.746 117.976 123.823 117.706 121.012L117.624 120.167H116.621H115.619L115.711 121.395C115.94 124.412 117.79 125.775 121.467 125.635C123.935 125.541 125.088 124.907 126.04 123.12C126.62 122.031 126.586 119.704 125.975 118.667C125.24 117.421 124.944 117.271 120.74 116.008C118.552 115.352 118.005 114.779 118.262 113.413C118.771 110.7 123.581 111.05 123.954 113.827L124.044 114.5H125.045H126.046L125.961 113.451C125.724 110.487 122.207 108.576 119.116 109.73ZM232.5 117.583V125.5H233.417H234.333V117.583V109.667H233.417H232.5V117.583ZM372.5 117.583V125.5H373.417H374.333V117.583V109.667H373.417H372.5V117.583ZM155.333 112.333C155.333 114.566 155.211 115.289 154.948 114.605C154.644 113.813 152.432 113.44 151.243 113.98C148.435 115.256 147.646 121.877 149.985 124.54C151.346 126.09 153.724 126.089 155.09 124.537L155.489 124.083L155.495 124.792L155.5 125.5H156.333H157.167V117.667V109.833H156.25H155.333V112.333ZM168.5 117.667V125.5H169.5H170.5V119.382V113.265L173.568 119.341L176.636 125.417L177.735 125.466L178.833 125.515V117.674V109.833H177.835H176.838L176.794 115.739L176.75 121.645L173.757 115.739L170.764 109.833H169.632H168.5V117.667ZM244.767 111.625C244.447 112.61 243.326 115.967 242.277 119.083C241.227 122.2 240.318 124.919 240.256 125.125C240.148 125.486 240.183 125.5 241.204 125.5H242.265L242.558 124.542C242.72 124.015 243.045 122.963 243.28 122.204L243.709 120.825L246.299 120.871L248.889 120.917L249.016 121.333C249.085 121.563 249.385 122.594 249.681 123.625L250.22 125.5H251.296C252.244 125.5 252.362 125.465 252.283 125.208C252.234 125.048 252.046 124.429 251.865 123.833C251.685 123.237 250.935 120.837 250.2 118.5C249.465 116.162 248.554 113.256 248.175 112.042L247.486 109.833H246.418H245.35L244.767 111.625ZM268.833 117.667V125.5H269.831H270.829L270.873 119.458L270.917 113.417L273.941 119.417L276.965 125.417L278.066 125.466L279.167 125.515V117.674V109.833H278.167H277.167L277.16 115.792C277.154 121.596 277.146 121.735 276.859 121.167C276.698 120.846 275.338 118.165 273.838 115.208L271.111 109.833H269.972H268.833V117.667ZM361 117.667V125.5H362H363V122.181V118.863L365.625 118.806C369.528 118.723 370.667 117.688 370.667 114.227C370.667 110.631 369.528 109.833 364.396 109.833H361V117.667ZM254 110.716C253.19 111.121 253.504 112.5 254.405 112.5C254.929 112.5 255.5 112.034 255.5 111.606C255.5 110.814 254.724 110.354 254 110.716ZM159.625 110.847C159.21 111.089 159.231 112.1 159.656 112.327C160.447 112.751 161.333 112.358 161.333 111.583C161.333 110.811 160.387 110.403 159.625 110.847ZM197.595 110.929C196.976 111.548 197.461 112.5 198.395 112.5C199.07 112.5 199.333 112.243 199.333 111.583C199.333 110.702 198.235 110.289 197.595 110.929ZM301.442 110.971C300.852 111.624 301.327 112.5 302.271 112.5C302.888 112.5 303.167 112.234 303.167 111.645C303.167 110.751 302.04 110.311 301.442 110.971ZM331.713 110.875C331.091 111.679 331.5 112.549 332.463 112.468C333.793 112.356 333.765 110.667 332.433 110.667C332.126 110.667 331.802 110.76 331.713 110.875ZM192.167 112.583V114H191.583H191V114.833V115.667H191.561H192.121L192.203 119.875C192.312 125.446 192.402 125.667 194.572 125.667H195.667V124.74C195.667 123.956 195.621 123.817 195.375 123.842C194.076 123.974 194 123.721 194 119.225V115.667H194.833H195.667V114.833V114H194.833H194V112.583V111.167H193.083H192.167V112.583ZM326.333 112.583V114H325.667H325V114.833V115.667H325.667H326.333V119.689C326.333 125.257 326.495 125.667 328.689 125.667H329.833V124.767V123.867H329.218C328.197 123.867 328.167 123.739 328.167 119.468V115.667H329H329.833V114.833V114H329H328.167V112.583V111.167H327.25H326.333V112.583ZM367.576 112.069C368.437 112.429 368.735 113.017 368.735 114.354C368.735 116.403 368.084 116.864 365.042 116.969L363 117.04V114.437V111.833H365.005C366.358 111.833 367.195 111.91 367.576 112.069ZM247.48 116.25C247.856 117.533 248.164 118.677 248.165 118.792C248.166 118.946 247.673 119 246.25 119C245.196 119 244.333 118.975 244.333 118.944C244.333 118.913 244.476 118.445 244.651 117.903C244.825 117.36 245.242 116.017 245.576 114.917C246.396 112.219 246.345 112.308 246.586 113.167C246.702 113.579 247.105 114.967 247.48 116.25ZM131.02 113.823C129.734 114.151 128.689 115.379 128.55 116.726L128.453 117.667H129.393C130.288 117.667 130.333 117.646 130.333 117.244C130.333 115.893 132.269 115.027 133.67 115.752C134.299 116.077 134.5 116.472 134.5 117.387V118.128L133.542 118.245C129.485 118.742 128.121 119.747 128.107 122.25C128.089 125.602 131.395 126.89 134.125 124.593L134.628 124.17L134.84 124.684C135.397 126.029 137.333 126.01 137.333 124.659C137.333 123.953 137.287 123.833 137.01 123.833C136.465 123.833 136.419 123.545 136.333 119.583C136.238 115.215 136.128 114.827 134.789 114.144C134.03 113.757 131.969 113.581 131.02 113.823ZM184.108 113.84C182.705 114.193 181.667 115.491 181.667 116.89V117.667H182.583C183.49 117.667 183.5 117.661 183.5 117.169C183.5 116.343 184.269 115.64 185.278 115.543C186.811 115.396 187.667 116.092 187.667 117.489V118.128L186.708 118.245C182.687 118.737 181.174 119.855 181.174 122.333C181.174 125.517 184.848 126.883 187.219 124.581L187.809 124.008L187.914 124.487C188.1 125.337 188.914 125.782 189.931 125.592C190.701 125.447 190.843 123.833 190.087 123.833C189.532 123.833 189.516 123.729 189.46 119.5C189.406 115.366 189.28 114.906 188.007 114.191C187.214 113.745 185.204 113.565 184.108 113.84ZM204.195 113.822C201.732 114.448 200.314 118.437 201.256 122.09C202.472 126.806 208.433 126.981 209.735 122.339C211.192 117.146 208.344 112.767 204.195 113.822ZM215.554 113.783C215.354 113.822 214.848 114.155 214.429 114.524L213.667 115.195V114.597V114H212.75H211.833V119.75V125.5H212.75H213.667V121.619C213.667 116.73 214.017 115.792 215.931 115.565C217.757 115.347 217.999 116.019 218 121.292V125.5H218.917H219.833V120.854C219.833 115.847 219.789 115.54 218.931 114.615C218.181 113.805 216.971 113.507 215.554 113.783ZM224.667 113.852C223.354 114.249 222.431 115.407 222.224 116.916L222.121 117.667H223.144H224.167V117.115C224.167 115.619 226.769 114.921 227.847 116.128C228.227 116.553 228.333 116.831 228.333 117.4V118.128L227.375 118.243C223.507 118.704 222.055 119.673 221.875 121.912C221.592 125.44 225.386 127.067 227.944 124.515L228.471 123.989L228.578 124.477C228.768 125.342 229.543 125.768 230.576 125.574C231.37 125.425 231.525 123.833 230.746 123.833C230.091 123.833 230 123.302 230 119.5C230 115.319 229.846 114.785 228.427 114.047C227.822 113.733 225.465 113.61 224.667 113.852ZM260.948 113.934C260.69 114.074 260.259 114.536 259.989 114.96L259.5 115.732V114.866V114H258.583H257.667V119.75V125.5H258.667H259.667V121.66C259.667 118.171 259.697 117.761 259.994 117.178C260.383 116.416 261.589 115.736 262.254 115.903C262.664 116.006 262.667 115.998 262.667 114.837V113.667L262.042 113.673C261.698 113.677 261.206 113.794 260.948 113.934ZM284.314 113.897C282.941 114.387 282.167 115.375 281.916 116.958L281.804 117.667H282.819C283.818 117.667 283.833 117.66 283.833 117.202C283.833 116.516 284.617 115.674 285.366 115.556C286.963 115.305 288 115.993 288 117.306V118.128L287.042 118.245C282.765 118.769 281.204 120.09 281.573 122.872C281.951 125.726 285.264 126.697 287.533 124.619L288.126 124.076L288.438 124.739C288.794 125.495 289.361 125.761 290.259 125.593C291.033 125.447 291.181 123.833 290.42 123.833C289.869 123.833 289.858 123.752 289.783 119.5C289.716 115.657 289.659 115.358 288.829 114.547C287.986 113.722 285.716 113.396 284.314 113.897ZM307.578 113.844C304.154 114.84 303.782 123.684 307.094 125.33C308.457 126.007 309.862 125.78 311.042 124.693L311.5 124.271V124.644C311.5 125.713 310.964 127.334 310.475 127.746C309.38 128.666 307.388 128.19 307.072 126.931C306.949 126.439 305.167 126.242 305.167 126.72C305.167 130.556 310.921 131.417 312.791 127.86C313.213 127.057 313.331 125.28 313.332 119.708L313.333 114H312.417H311.5V114.601V115.202L311.014 114.682C310.162 113.77 308.895 113.461 307.578 113.844ZM318.098 113.874C316.82 114.211 315.67 115.789 315.668 117.208C315.666 118.016 317.44 117.906 317.593 117.088C318.027 114.777 321.833 115.06 321.833 117.403V118.134L320.792 118.253C316.676 118.724 315.238 119.846 315.359 122.496C315.504 125.697 319.154 126.918 321.408 124.519L321.899 123.997L322.074 124.524C322.353 125.362 322.984 125.732 323.901 125.594L324.667 125.48V124.656C324.667 123.887 324.639 123.833 324.246 123.833C323.592 123.833 323.5 123.302 323.5 119.51C323.5 115.637 323.401 115.153 322.46 114.443C321.48 113.703 319.647 113.464 318.098 113.874ZM338.125 113.904C335.691 114.773 334.428 118.645 335.408 122.232C336.61 126.627 342.094 126.991 343.692 122.782C344.266 121.268 344.264 118.058 343.686 116.537C342.819 114.252 340.382 113.099 338.125 113.904ZM349.417 113.898C349.142 114.019 348.635 114.407 348.292 114.762L347.667 115.407V114.703V114H346.833H346V119.75V125.5H346.811H347.622L347.699 121.611C347.798 116.648 348.122 115.797 350.012 115.544C351.847 115.298 352.167 116.193 352.167 121.574V125.5H353.095H354.023L353.97 120.708C353.912 115.484 353.902 115.426 352.89 114.469C352.04 113.664 350.522 113.415 349.417 113.898ZM379.121 113.877C377.764 114.322 376.981 115.317 376.759 116.875L376.646 117.667H377.555C378.488 117.667 378.667 117.536 378.667 116.851C378.667 115.6 381.396 115.063 382.347 116.128C382.727 116.553 382.833 116.831 382.833 117.4V118.128L381.875 118.243C377.664 118.745 376.198 119.906 376.371 122.602C376.57 125.7 380.131 126.822 382.444 124.515L382.971 123.989L383.078 124.477C383.268 125.342 384.043 125.768 385.076 125.574C385.899 125.419 386.013 123.895 385.208 123.803L384.75 123.75L384.652 119.917C384.535 115.35 384.374 114.799 382.927 114.047C382.284 113.713 379.941 113.608 379.121 113.877ZM390.583 113.867C390.308 113.962 389.802 114.309 389.458 114.637L388.833 115.234V114.617V114H387.917H387V119.75V125.5H387.917H388.833L388.837 121.625C388.842 116.793 389.148 115.904 390.925 115.571C392.883 115.203 393.167 115.915 393.167 121.191V125.5H394.09H395.014L394.965 120.612L394.917 115.725L394.447 115.016C393.679 113.856 392.028 113.365 390.583 113.867ZM291.003 113.875C291.005 113.898 291.517 115.492 292.141 117.417C292.766 119.342 293.606 121.948 294.008 123.208L294.738 125.5H295.662H296.585L297.554 122.458C298.088 120.785 298.894 118.261 299.345 116.848C300.368 113.651 300.372 113.833 299.275 113.833H298.383L297.283 117.542C296.678 119.581 296.091 121.571 295.98 121.964C295.743 122.8 295.572 122.706 295.258 121.566C294.858 120.118 293.009 114.149 292.91 113.989C292.829 113.859 290.994 113.749 291.003 113.875ZM138.833 118.634C138.833 124.925 139.133 125.583 142 125.583C143.583 125.583 144.23 125.285 144.849 124.269L145.165 123.75L145.166 124.542L145.167 125.333H146H146.833V119.667V114H145.928H145.022L144.969 117.875C144.92 121.541 144.896 121.789 144.535 122.465C143.787 123.865 142.11 124.302 141.154 123.346L140.667 122.859V118.429V114H139.75H138.833V118.634ZM159.5 119.75V125.5H160.417H161.333V119.75V114H160.417H159.5V119.75ZM197.333 119.75V125.5H198.25H199.167V119.75V114H198.25H197.333V119.75ZM253.667 119.75V125.5H254.583H255.5V119.75V114H254.583H253.667V119.75ZM301.167 119.75V125.5H302.083H303V119.75V114H302.083H301.167V119.75ZM331.5 119.75V125.5H332.417H333.333V119.75V114H332.417H331.5V119.75ZM154.349 116.098C155.882 117.567 155.814 121.953 154.236 123.415C153.179 124.394 151.497 123.786 150.887 122.204C149.415 118.389 151.993 113.841 154.349 116.098ZM206.684 115.875C208.612 117.153 208.616 122.405 206.69 123.543C204.688 124.726 202.964 122.924 202.964 119.648C202.964 116.415 204.756 114.598 206.684 115.875ZM309.984 115.741C311.788 116.675 312.073 121.627 310.417 123.283C308.723 124.977 306.769 123.047 306.756 119.667C306.745 116.623 308.219 114.829 309.984 115.741ZM340.605 115.772C342.548 116.693 342.89 121.443 341.14 123.193C339.721 124.613 337.65 123.679 337.195 121.416C336.419 117.554 338.189 114.625 340.605 115.772ZM228.301 121.165C228.116 123.723 224.566 124.97 223.829 122.736C223.384 121.39 224.127 120.637 226.417 120.113C228.515 119.633 228.416 119.577 228.301 121.165ZM321.467 122.31C320.248 124.767 316.501 124.105 317.334 121.58C317.603 120.767 318.966 120.171 321.417 119.795C321.946 119.714 321.978 121.282 321.467 122.31ZM382.801 121.165C382.611 123.791 378.837 124.983 378.241 122.606C377.931 121.371 378.748 120.61 380.917 120.113C383.015 119.633 382.916 119.577 382.801 121.165ZM134.5 120.892C134.5 123.225 131.947 124.803 130.467 123.385C129.208 122.179 130.043 120.777 132.382 120.172C134.463 119.635 134.5 119.647 134.5 120.892ZM187.639 120.995C187.536 122.806 186.551 123.833 184.916 123.833C182.552 123.833 182.455 120.959 184.799 120.348C185.139 120.259 185.679 120.114 186 120.025C186.321 119.936 186.836 119.857 187.144 119.848L187.704 119.833L187.639 120.995ZM288 120.892C288 122.659 286.902 123.838 285.267 123.828C282.9 123.813 282.829 120.93 285.182 120.344C285.586 120.243 286.142 120.095 286.417 120.014C286.692 119.933 287.16 119.86 287.458 119.85L288 119.833V120.892Z" fill="white"/>
<path fill-rule="evenodd" clip-rule="evenodd" d="M0.0613108 0.913413C-0.108689 1.35841 0.104311 1.57741 1.02131 1.90141C7.25231 4.10041 12.5603 9.65741 14.6463 16.1664C15.4043 18.5324 15.5593 19.3994 16.7463 27.9164C17.3463 32.2244 17.9103 36.1994 17.9993 36.7494C18.0873 37.2994 18.3513 39.1744 18.5863 40.9164C19.5233 47.8814 19.6863 48.8884 20.1963 50.8324C22.5493 59.8034 28.8923 66.2054 37.4153 68.2144C38.8793 68.5594 94.3063 68.9134 95.6253 68.5864C96.2793 68.4234 96.1263 67.6994 95.3753 67.3984C92.4853 66.2384 90.8653 65.3534 89.0233 63.9314C83.6063 59.7444 81.1723 54.8894 79.9103 45.7554C79.6823 44.1024 79.4223 42.2994 79.3323 41.7494C79.1933 40.8904 78.5273 36.1164 77.1573 26.1664C76.9743 24.8364 76.7543 23.2994 76.6683 22.7494C76.5813 22.1994 76.4653 21.4114 76.4093 20.9994C75.0953 11.2914 68.0473 3.32741 58.7503 1.04541C57.0593 0.630413 0.219311 0.502413 0.0613108 0.913413ZM51.7533 13.2684C52.2583 13.8134 52.7613 15.1374 53.0233 16.6154C53.1343 17.2384 53.2413 17.7734 53.2623 17.8014C53.2823 17.8304 53.8513 17.6654 54.5253 17.4364C56.7173 16.6884 59.5633 16.0004 60.4653 15.9994C61.6743 15.9994 63.5353 16.9854 62.8103 17.2424C59.9443 18.2604 57.2223 19.4064 56.0693 20.0824L55.3483 20.5044L57.3853 21.5504C62.7733 24.3164 64.8293 26.2244 64.8323 28.4574C64.8343 29.3474 65.0313 29.3854 62.0853 27.9334C59.0643 26.4454 53.6233 24.3164 53.4073 24.5384C53.3833 24.5624 53.2463 26.7204 53.1023 29.3324C52.5373 39.5934 51.6533 44.7204 50.6003 43.8464C49.7763 43.1624 48.8563 35.8894 48.5693 27.7934L48.4533 24.5044L48.0183 24.6074C46.3063 25.0094 41.1253 27.1284 38.6993 28.4194C36.9583 29.3454 36.9993 29.3484 37.0043 28.2914C37.0123 26.1804 39.2893 24.1214 44.4943 21.5164L46.5043 20.5104L45.9603 20.2194C44.2053 19.2824 41.3183 18.0394 39.1023 17.2684C38.3253 16.9984 40.0033 15.9994 41.2353 15.9994C42.1673 15.9994 44.8833 16.6334 46.8963 17.3204C48.6213 17.9094 48.5903 17.9174 48.7153 16.8654C49.0773 13.8064 50.5913 12.0144 51.7533 13.2684ZM45.0423 46.5374C46.7603 47.2044 48.1673 47.7894 48.1673 47.8374C48.1673 47.8854 47.4823 48.1794 46.6453 48.4894L45.1243 49.0524L44.1873 48.5474C43.6723 48.2694 42.3133 47.5494 41.1673 46.9464C38.0573 45.3094 38.0793 45.3454 40.1673 45.3344L41.9173 45.3254L45.0423 46.5374ZM62.7373 45.6624C62.4773 45.9224 42.1543 56.6774 41.4373 56.9344C40.6953 57.2004 28.8763 57.2754 29.3333 57.0114C29.5603 56.8804 37.6833 53.7764 51.6673 48.4784C54.5543 47.3844 57.4423 46.2734 58.0833 46.0084C59.2853 45.5134 63.1753 45.2244 62.7373 45.6624ZM61.2863 52.7514C63.8333 53.7154 66.1043 54.5854 66.3333 54.6854C66.5633 54.7844 67.9463 55.3134 69.4073 55.8594C70.8693 56.4054 72.1823 56.9224 72.3243 57.0074C72.4863 57.1044 70.3073 57.1474 66.4893 57.1224L60.3943 57.0824L59.3223 56.5244C51.8703 52.6404 52.6123 53.1414 53.5273 52.6144C54.1333 52.2654 56.5033 51.0344 56.6193 51.0074C56.6393 51.0034 58.7393 51.7884 61.2863 52.7514Z" fill="white"/>
<path fill-rule="evenodd" clip-rule="evenodd" d="M353 0.243539C349.336 1.00154 347.783 2.64954 347.163 6.43354C347.064 7.04054 347.002 19.3005 347.001 38.4575L347 69.4995H354.083H361.167V55.9165V42.3325H369.38C380.891 42.3325 384.631 41.8035 389.417 39.4975C396.53 36.0695 399.909 30.0865 399.911 20.9165C399.914 8.97754 393.895 2.06454 382.044 0.394539C379.345 0.0135389 354.727 -0.114461 353 0.243539ZM299.742 0.653539C295.994 1.25454 293.214 3.27054 291.528 6.61154C290.974 7.70854 291.104 7.32454 282.94 31.9995C279.862 41.3035 275.804 53.5665 273.923 59.2495C272.041 64.9325 270.502 69.6045 270.501 69.6305C270.5 69.6565 274.344 69.6565 279.042 69.6305L287.583 69.5825L288.417 69.1415C289.005 68.8295 291.581 66.4015 297.167 60.8965C301.521 56.6055 306.002 52.1925 307.125 51.0905C309.693 48.5715 309.702 48.4985 307.445 48.5005C304.48 48.5035 304.722 48.3975 295.167 53.8975C292.554 55.4015 290.4 56.6165 290.379 56.5975C290.343 56.5645 290.759 55.1425 293.844 44.7495C294.579 42.2745 295.323 39.7615 295.499 39.1665C295.674 38.5705 296.275 36.5455 296.833 34.6665C297.392 32.7865 298.004 30.7245 298.193 30.0825C298.382 29.4415 298.639 28.5785 298.762 28.1665C299.055 27.1925 300.215 23.2695 301.433 19.1355C302.373 15.9455 302.539 15.5855 302.708 16.3725C302.752 16.5795 303.291 18.4745 303.906 20.5825C304.521 22.6915 305.275 25.2785 305.582 26.3325C305.888 27.3865 306.337 28.9245 306.579 29.7495C306.821 30.5745 307.498 32.8995 308.082 34.9165C308.667 36.9325 309.343 39.2575 309.585 40.0825C309.827 40.9075 310.427 42.9705 310.919 44.6665C312.087 48.6925 312.498 50.1035 313.612 53.9165C314.122 55.6575 314.985 58.6205 315.532 60.4995C316.792 64.8275 318.006 68.9965 318.119 69.3745C318.2 69.6495 334.667 69.8655 334.667 69.5925C334.667 69.5515 334.449 68.8575 334.183 68.0505C333.918 67.2435 332.712 63.5455 331.503 59.8325C327.801 48.4565 327.158 46.4865 326.5 44.4995C326.152 43.4455 324.99 39.8825 323.92 36.5825C322.182 31.2275 321.499 29.1305 319.168 21.9995C318.823 20.9455 317.624 17.2705 316.503 13.8325C313.347 4.15554 312.034 2.45954 306.494 0.911539C305.438 0.616539 301.026 0.447539 299.742 0.653539ZM126 1.00254C119.471 2.25854 114.846 6.21354 112.947 12.1665C112.473 13.6525 112.303 28.7425 112.737 30.8225C113.816 36.0005 118.507 39.9935 125.333 41.5435C126.874 41.8935 127.321 41.9055 141.917 41.9935L156.917 42.0825L157.857 42.4635C162.68 44.4135 162.962 52.1675 158.294 54.4655C156.541 55.3285 156.486 55.3305 135.792 55.3315L116.5 55.3325V62.4365V69.5415L140.458 69.4255C160.477 69.3285 164.663 69.2695 165.917 69.0615C172.678 67.9445 177.66 63.7085 179.445 57.5585C179.806 56.3145 179.987 41.9635 179.669 39.7835C178.991 35.1355 175.226 31.1315 169.772 29.2595C166.238 28.0465 167.356 28.1155 149.417 28.0105L133.25 27.9165L132.633 27.5325C130.349 26.1125 130.072 17.9875 132.231 15.7465C133.305 14.6305 132.738 14.6685 148.614 14.6675C163.961 14.6665 164.059 14.6615 166.292 13.8295C171.482 11.8965 175.049 7.24454 175.456 1.87454L175.548 0.666539L151.566 0.681539C129.062 0.696539 127.486 0.716539 126 1.00254ZM248 0.968539C245.835 1.53454 244.076 3.02254 243.038 5.16654C242.285 6.72054 242.213 7.76554 242.488 13.1665C243.624 35.4315 243.791 39.3325 243.929 46.7495L244.034 52.4165L242.801 50.7495C239.992 46.9515 235.591 40.4245 229.877 31.5825C224.536 23.3175 223.854 22.2525 220.113 16.3325C218.23 13.3535 215.99 9.83254 215.136 8.50954C212.615 4.60154 210.585 2.87054 207.037 1.60454L205.583 1.08554L201.333 1.02754C194.159 0.929539 193.339 1.08254 192.542 2.66154L192.167 3.40354V36.2845V69.1665H199.542H206.917L206.865 53.7915C206.836 45.3345 206.761 34.4895 206.698 29.6895L206.583 20.9635L207.301 21.7735C210.277 25.1295 215.504 33.0745 222.635 45.0825C228.739 55.3605 233.587 62.6105 236.917 66.4385C239.586 69.5085 239.47 69.4815 250.286 69.4925L257.822 69.4995L258.02 69.1285C258.24 68.7185 258.116 47.7535 257.827 36.3325C257.743 32.9865 257.622 23.5935 257.559 15.4575L257.445 0.666539L253.264 0.675539C249.89 0.683539 248.874 0.739539 248 0.968539ZM375.586 10.9275C381.804 11.7425 384.61 13.9875 385.456 18.8235C386.45 24.5065 384.116 28.8405 379.134 30.5605C376.543 31.4545 375.629 31.5425 368.125 31.6185L361.167 31.6895V21.1775V10.6665H367.382C372.063 10.6665 374.088 10.7305 375.586 10.9275Z" fill="white"/>
<path fill-rule="evenodd" clip-rule="evenodd" d="M53.2119 25.8329C53.2119 26.2459 53.2449 26.4149 53.2839 26.2079C53.3239 26.0019 53.3239 25.6649 53.2839 25.4579C53.2449 25.2519 53.2119 25.4209 53.2119 25.8329Z" fill="white"/>
</svg>
